<?xml version="1.0" ?><svg id="Color" viewBox="0 0 512 512" xmlns="http://www.w3.org/2000/svg"><defs><style>.cls-1{fill:#f2f2f2;}.cls-2{fill:#f7f7f7;}.cls-3{fill:#999;}.cls-4{fill:#aaa;}.cls-5{fill:#b2b2b2;}.cls-6{fill:#4c3546;}</style></defs><title/><g data-name="34. Dumbbells" id="_34._Dumbbells"><path class="cls-1" d="M481.58,178a24,24,0,0,1,0,33.94L446.3,247.26a24,24,0,0,1-33.94,0l-46.58-46.58-165.1,165.1,46.58,46.58a24,24,0,0,1,0,33.94L212,481.58a24,24,0,0,1-33.94,0l-27.29-27.29L122.05,483a24,24,0,0,1-33.94,0L29,423.89A24,24,0,0,1,29,390l28.7-28.7L30.42,334a24,24,0,0,1,0-33.94L65.7,264.74a24,24,0,0,1,33.94,0l46.58,46.58,165.1-165.1L264.74,99.64a24,24,0,0,1,0-33.94L300,30.42a24,24,0,0,1,33.94,0l27.29,27.29L390,29a24,24,0,0,1,33.94,0L483,88.11a24,24,0,0,1,0,33.94l-28.7,28.7Z"/><path class="cls-2" d="M264.74,99.64a24,24,0,0,1,0-33.94L300,30.42a24,24,0,0,1,33.94,0l27.29,27.29L390,29a24,24,0,0,1,33.94,0L483,88.11a24,24,0,0,1,0,33.94l-28.7,28.7L481.58,178a24,24,0,0,1,0,33.94L446.3,247.26a24,24,0,0,1-33.94,0l-46.58-46.58L333.3,233.16,205.92,251.62l105.4-105.4Z"/><path class="cls-3" d="M483,88.11a24,24,0,0,1,0,33.94l-28.7,28.7-93-93L390,29a24,24,0,0,1,33.94,0Z"/><rect class="cls-4" height="256.76" rx="24" ry="24" transform="translate(11.12 304.53) rotate(-45)" width="97.89" x="324.21" y="10.46"/><path class="cls-4" d="M247.26,412.36a24,24,0,0,1,0,33.94L212,481.58a24,24,0,0,1-33.94,0L30.42,334a24,24,0,0,1,0-33.94L65.7,264.74a24,24,0,0,1,33.94,0l101,101Z"/><path class="cls-4" d="M150.75,454.29,122.05,483a24,24,0,0,1-33.94,0L29,423.89A24,24,0,0,1,29,390l28.7-28.7Z"/><path class="cls-5" d="M449.33,244.23l-3,3a24,24,0,0,1-33.94,0L264.74,99.64a24,24,0,0,1,0-33.94L300,30.42a24,24,0,0,1,33.94,0l3,3L304.74,65.7a24,24,0,0,0,0,33.94Z"/><path class="cls-5" d="M115.08,487.84a24,24,0,0,1-27-4.85L29,423.89A24,24,0,0,1,29,390l28.7-28.7,10,10L49,390a24,24,0,0,0,0,33.94C113.37,488.25,109.72,485.4,115.08,487.84Z"/><path class="cls-5" d="M210,483.35a24,24,0,0,1-32-1.77L30.42,334a24,24,0,0,1,0-33.94L65.7,264.74a24,24,0,0,1,32-1.77c-1.48,1.2,1.22-1.42-37.25,37a24,24,0,0,0,0,33.94C218.6,492.14,208.45,482.09,210,483.35Z"/><path class="cls-6" d="M476.92,150.75l17.39-17.38a40.06,40.06,0,0,0,0-56.57L435.2,17.69a40.06,40.06,0,0,0-56.57,0L361.25,35.08l-16-16a40,40,0,0,0-56.57,0L253.43,54.39a40,40,0,0,0,0,56.57l35.26,35.26L146.22,288.69,111,253.43a40,40,0,0,0-56.57,0L19.11,288.71a40.06,40.06,0,0,0,0,56.57l16,16L17.69,378.63a40.06,40.06,0,0,0,0,56.57L76.8,494.31a40.06,40.06,0,0,0,56.57,0l17.38-17.39,16,16a40.06,40.06,0,0,0,56.57,0l35.28-35.28a40,40,0,0,0,0-56.57l-35.26-35.26L365.78,223.31,401,258.57a40,40,0,0,0,56.57,0l35.28-35.28a40.06,40.06,0,0,0,0-56.57ZM401.26,40.32a8,8,0,0,1,11.32,0l59.1,59.1a8,8,0,0,1,0,11.32l-17.39,17.39L383.87,57.71ZM110.74,471.68a8,8,0,0,1-11.32,0l-59.1-59.1a8,8,0,0,1,0-11.32l17.39-17.39,70.42,70.42ZM235.94,435l-35.27,35.27a8,8,0,0,1-11.32,0c-32-32-115-115-147.61-147.61a8,8,0,0,1,0-11.32C80,273.05,78.16,273.71,82.67,273.71c5,0-5.82-9.13,153.27,150A8,8,0,0,1,235.94,435Zm-35.26-91.83-31.84-31.84L311.32,168.84l31.84,31.84ZM470.26,200.67C432,239,433.84,238.29,429.33,238.29s-2.11,1.2-52.23-48.92C268.24,80.51,273.71,87.41,273.71,82.67c0-4.46-.79-2.51,37.62-40.93A8,8,0,0,1,317,39.4c4.49,0,3.63.31,32.93,29.61h0L470.26,189.35A8,8,0,0,1,470.26,200.67Z"/></g></svg>