<?xml version="1.0" ?><svg id="Fill" viewBox="0 0 512 512" xmlns="http://www.w3.org/2000/svg"><title/><g data-name="34. Dumbbells" id="_34._Dumbbells"><path d="M258.57,401a40,40,0,0,1,0,56.57l-35.28,35.28a40,40,0,0,1-56.57,0L19.11,345.28a40.06,40.06,0,0,1,0-56.57l35.28-35.28a40,40,0,0,1,56.57,0ZM25.06,383.72a8,8,0,0,0-12.4,1.33,39.68,39.68,0,0,0,5,50.15L76.8,494.31a39.66,39.66,0,0,0,50.14,5,8,8,0,0,0,1.34-12.4Zm257.77-209a16,16,0,0,0-22.63,0l-85.5,85.5a16,16,0,0,0,0,22.63l54.47,54.47a16,16,0,0,0,22.63,0l85.5-85.5a16,16,0,0,0,0-22.63ZM487,128.26a8,8,0,0,0,12.4-1.34,39.68,39.68,0,0,0-5.05-50.12L435.2,17.69a39.67,39.67,0,0,0-50.12-5.05A8,8,0,0,0,383.74,25ZM345.28,19.11a40,40,0,0,0-56.57,0L253.43,54.39a40,40,0,0,0,0,56.57L401,258.57a40,40,0,0,0,56.57,0l35.28-35.28a40.06,40.06,0,0,0,0-56.57Z"/></g></svg>